HIERARCHY
ROOT Hips
{
 OFFSET 0.000000 0.000000 0.000000
 CHANNELS 6 Xposition Yposition Zposition Yrotation Xrotation Zrotation
 JOINT Chest
 {
  OFFSET 0.000000 16.280000 -0.014500
  CHANNELS 3 Yrotation Xrotation Zrotation
  JOINT Chest2
  {
   OFFSET 0.000000 10.601900 0.029500
   CHANNELS 3 Yrotation Xrotation Zrotation
   JOINT Chest3
   {
    OFFSET 0.000000 10.554800 0.000000
    CHANNELS 3 Yrotation Xrotation Zrotation
    JOINT Chest4
    {
     OFFSET 0.000000 10.544000 0.000000
     CHANNELS 3 Yrotation Xrotation Zrotation
     JOINT Neck
     {
      OFFSET 0.000000 16.186500 0.000000
      CHANNELS 3 Yrotation Xrotation Zrotation
      JOINT Head
      {
       OFFSET 0.000000 9.876700 0.062400
       CHANNELS 3 Yrotation Xrotation Zrotation
       End Site
       {
        OFFSET 0.000000 18.635100 0.032900
       }
      }
     }
     JOINT RightCollar
     {
      OFFSET -3.550000 10.761000 0.000000
      CHANNELS 3 Yrotation Xrotation Zrotation
      JOINT RightShoulder
      {
       OFFSET -16.915100 0.000000 0.000000
       CHANNELS 3 Yrotation Xrotation Zrotation
       JOINT RightElbow
       {
        OFFSET 0.000000 -31.241900 0.000000
        CHANNELS 3 Yrotation Xrotation Zrotation
        JOINT RightWrist
        {
         OFFSET 0.000000 -25.690800 0.013700
         CHANNELS 3 Yrotation Xrotation Zrotation
         End Site
         {
          OFFSET 0.000000 -19.336200 0.000000
         }
        }
       }
      }
     }
     JOINT LeftCollar
     {
      OFFSET 3.550000 10.761000 0.000000
      CHANNELS 3 Yrotation Xrotation Zrotation
      JOINT LeftShoulder
      {
       OFFSET 16.915100 0.000000 0.000000
       CHANNELS 3 Yrotation Xrotation Zrotation
       JOINT LeftElbow
       {
        OFFSET 0.000000 -31.241900 0.000000
        CHANNELS 3 Yrotation Xrotation Zrotation
        JOINT LeftWrist
        {
         OFFSET 0.000000 -25.690800 0.013700
         CHANNELS 3 Yrotation Xrotation Zrotation
         End Site
         {
          OFFSET 0.000000 -19.336200 0.000000
         }
        }
       }
      }
     }
    }
   }
  }
 }
 JOINT RightHip
 {
  OFFSET -13.350800 0.071600 0.007200
  CHANNELS 3 Yrotation Xrotation Zrotation
  JOINT RightKnee
  {
   OFFSET 0.000000 -49.946400 0.002700
   CHANNELS 3 Yrotation Xrotation Zrotation
   JOINT RightAnkle
   {
    OFFSET 0.000000 -42.233900 0.021900
    CHANNELS 3 Yrotation Xrotation Zrotation
    JOINT RightToe
    {
     OFFSET 0.000000 -11.862800 19.724700
     CHANNELS 3 Yrotation Xrotation Zrotation
     End Site
     {
      OFFSET 0.000000 -1.715400 7.529500
     }
    }
   }
  }
 }
 JOINT LeftHip
 {
  OFFSET 13.350800 0.071600 0.007200
  CHANNELS 3 Yrotation Xrotation Zrotation
  JOINT LeftKnee
  {
   OFFSET 0.000000 -49.946400 0.002700
   CHANNELS 3 Yrotation Xrotation Zrotation
   JOINT LeftAnkle
   {
    OFFSET 0.000000 -42.233900 0.021900
    CHANNELS 3 Yrotation Xrotation Zrotation
    JOINT LeftToe
    {
     OFFSET 0.000000 -11.862800 19.724700
     CHANNELS 3 Yrotation Xrotation Zrotation
     End Site
     {
      OFFSET 0.000000 -1.715400 7.529500
     }
    }
   }
  }
 }
}
MOTION
Frames: 12
Frame Time: 0.008333
58.356011 129.895776 38.361684 179.971889 -15.832595 -1.715537 -2.632856 4.448919 1.754874 -0.086719 0.143153 0.058667 -0.153577 0.253627 0.103687 -2.512036 4.276962 1.647543 -2.096859 20.132569 -3.362330 -1.471754 -4.326443 -3.113209 -5.846514 9.759567 -28.880439 56.669782 -56.439034 -125.033604 3.020335 1.831426 -18.789468 -6.817006 -23.396627 -37.227138 15.038581 -2.372349 25.469651 -46.279191 -67.237224 94.850793 -9.208980 4.136179 25.090774 -4.888605 -6.580550 38.049618 1.936521 -54.648595 -2.107450 -166.931661 71.116275 -156.535841 -0.085400 -35.590557 -2.880429 0.020960 0.018971 0.012608 -10.478445 -52.193574 7.463936 158.149037 69.472468 153.541602 1.206827 -36.932522 -3.511555 0.065647 0.042297 0.039500
58.367233 129.867136 38.357484 179.947908 -15.722330 -1.700266 -2.615275 4.413572 1.701917 -0.082284 0.101256 0.088106 -0.155919 0.293235 0.069917 -2.499787 4.261587 1.634626 -2.196976 20.033578 -3.302417 -1.586855 -4.451694 -2.998953 -6.756869 9.637872 -27.986297 57.549863 -55.985238 -127.015387 3.458716 -0.030840 -18.457901 -6.992123 -24.611683 -38.262538 15.712924 -2.340905 25.434014 -45.890528 -66.883619 94.529460 -10.674681 3.283836 25.948670 -5.314656 -6.897320 39.071944 1.955679 -54.797694 -2.088442 -166.793930 71.152970 -156.439569 -0.092516 -35.483244 -2.834754 0.007302 0.060744 0.004395 -10.793015 -52.289720 7.703821 158.109651 69.493532 153.356618 1.229507 -36.945497 -3.539323 0.052562 0.076936 0.031638
58.378616 129.833734 38.356988 179.956757 -15.577095 -1.730842 -2.628152 4.311725 1.706355 -0.080648 0.156049 0.044076 -0.156307 0.237480 0.112271 -2.484922 4.260868 1.584577 -2.301406 19.996411 -3.261765 -1.707428 -4.493612 -2.931170 -7.390728 9.267724 -26.886290 57.826410 -54.328945 -128.204919 4.466413 -0.945661 -18.725543 -6.367371 -25.120052 -39.540677 16.227891 -2.295614 25.240180 -45.071311 -66.339695 94.274048 -13.043845 2.440590 26.855362 -5.500957 -7.157490 39.866766 1.885478 -54.978955 -2.002998 -166.673204 71.179937 -156.354077 -0.092957 -35.401656 -2.794461 -0.004758 0.118534 -0.002863 -11.116820 -52.424657 7.974231 158.098298 69.516636 153.243234 1.230325 -36.994824 -3.541798 0.065795 0.126077 0.039626
58.388074 129.802020 38.341243 179.930914 -15.465002 -1.775805 -2.584165 4.290990 1.700152 -0.078480 0.151602 0.043383 -0.152538 0.229605 0.111085 -2.458554 4.187636 1.591669 -2.378771 20.003151 -3.224601 -1.845867 -4.413537 -2.985149 -7.605323 8.890006 -25.933046 57.040911 -52.472831 -128.332740 5.736006 -1.473539 -19.428189 -5.485309 -25.359038 -40.856815 16.366777 -2.268605 24.919901 -43.877345 -65.446833 93.981708 -15.804819 1.820460 27.858189 -5.384154 -7.399968 40.462375 1.788109 -55.150693 -1.834797 -166.486469 71.181192 -156.216613 -0.130449 -35.271699 -2.742964 0.013963 0.133002 0.008411 -11.376716 -52.539391 8.248569 158.180849 69.518335 153.241951 1.269192 -36.994522 -3.564853 0.040279 0.155837 0.024263
58.390081 129.770414 38.320359 179.903832 -15.346803 -1.816119 -2.520054 4.265527 1.715595 -0.097913 0.091647 0.064435 -0.126160 0.274707 0.091063 -2.432760 4.102031 1.646942 -2.497559 20.090371 -3.362507 -1.900046 -4.324312 -3.079219 -7.482668 8.605864 -25.380791 55.739457 -51.259820 -127.982571 7.007611 -1.995288 -20.164553 -4.910734 -25.825098 -41.813892 16.157718 -2.251384 24.527293 -42.546986 -64.292872 93.666535 -18.395296 1.495375 28.870679 -5.161262 -7.661334 41.051681 1.724995 -55.368046 -1.690821 -166.321216 71.130808 -156.084348 -0.185151 -35.089634 -2.701435 0.046333 0.049060 0.027879 -11.617082 -52.674492 8.512907 158.282269 69.513420 153.269791 1.296202 -36.943964 -3.570180 0.022894 0.123243 0.013784
58.370929 129.735230 38.311849 179.954265 -15.157805 -1.814589 -2.558288 4.167896 1.700078 -0.091057 0.037450 0.060792 -0.130610 0.319637 0.097641 -2.426325 4.034581 1.697664 -2.524200 20.183915 -3.558495 -1.886548 -4.254374 -3.229457 -7.214127 8.499375 -25.203815 54.773313 -50.873184 -127.881836 7.996995 -2.478241 -20.626934 -4.875157 -26.641165 -42.297732 15.912460 -2.214337 24.220591 -41.510551 -63.155141 93.549091 -20.543691 1.478267 29.715099 -4.946536 -7.969497 41.679140 1.735808 -55.647110 -1.747066 -166.335689 71.064819 -156.092693 -0.236477 -34.978014 -2.671882 0.083361 0.005627 0.050144 -11.786255 -52.890239 8.620315 158.180351 69.558297 153.177317 1.257373 -36.922105 -3.602613 0.066858 0.195913 0.040266
58.360777 129.706047 38.290303 179.970713 -15.001424 -1.838744 -2.598066 4.115402 1.722941 -0.072097 0.101511 0.058086 -0.151961 0.247969 0.103270 -2.464733 3.968017 1.736277 -2.448822 20.224244 -3.731550 -1.767474 -4.203361 -3.433722 -6.946922 8.633829 -25.283868 54.587795 -51.007297 -128.351838 8.499717 -2.690587 -20.730764 -5.155706 -27.481424 -42.563950 15.920816 -2.144638 24.100245 -41.149179 -62.236334 93.861743 -22.211288 1.800623 30.184892 -4.748988 -8.317456 42.230817 1.756200 -55.912102 -1.783121 -166.362807 71.002187 -156.113423 -0.250225 -34.781386 -2.575660 0.087522 0.016742 0.052651 -11.953125 -53.070439 8.778420 158.145793 69.576761 153.138880 1.255334 -36.882268 -3.639501 0.070026 0.237489 0.042182
58.365592 129.680696 38.270442 179.985593 -14.833203 -1.911398 -2.655580 4.057521 1.790609 -0.082716 0.123046 0.058706 -0.146496 0.218270 0.103981 -2.533089 3.892064 1.756648 -2.303447 20.224592 -3.866692 -1.581378 -4.199964 -3.612507 -6.730737 8.909857 -25.480083 55.025146 -51.186853 -129.205183 8.459946 -2.465778 -20.572189 -5.386113 -28.011984 -42.834393 16.247810 -2.099575 24.189558 -41.610233 -61.645038 94.629693 -23.463061 2.477231 30.194179 -4.610114 -8.673326 42.574954 1.722016 -56.197896 -1.753838 -166.364990 70.920397 -156.100316 -0.204592 -34.584669 -2.491265 0.051451 -0.014733 0.030940 -12.299954 -53.350916 9.141655 158.346919 69.494754 153.283927 1.258470 -36.658072 -3.664681 0.047887 0.096327 0.028823
58.361804 129.660688 38.249713 179.996264 -14.674800 -1.944649 -2.707566 3.989679 1.808858 -0.084119 0.119287 0.058451 -0.149067 0.211651 0.103556 -2.551049 3.821537 1.776924 -2.191191 20.183192 -3.946571 -1.391334 -4.222913 -3.722279 -6.676144 9.115712 -25.703767 55.759818 -51.109113 -130.049205 7.959115 -1.808311 -20.321678 -5.460705 -28.196588 -43.043223 16.750708 -2.126061 24.420722 -42.768510 -61.398977 95.669266 -24.327905 3.433910 29.843078 -4.553549 -9.013793 42.647179 1.756913 -56.480801 -1.807404 -166.327935 70.818105 -156.054668 -0.157697 -34.412479 -2.403199 0.030017 -0.048779 0.018045 -12.490226 -53.612645 9.350887 158.492456 69.418910 153.419191 1.261291 -36.519325 -3.693376 0.038391 0.025322 0.023093
58.354972 129.647018 38.230469 179.998731 -14.532144 -1.955280 -2.740075 3.898791 1.792169 -0.084364 0.114976 0.057477 -0.145452 0.204527 0.114450 -2.627267 3.724579 1.751750 -2.015662 20.171140 -3.933646 -1.238357 -4.242660 -3.742452 -6.757692 9.172816 -25.903687 56.736716 -50.837842 -130.713525 7.169728 -0.904766 -20.078178 -5.447429 -28.161891 -43.060829 17.397590 -2.175461 24.739613 -44.286134 -61.402048 96.733590 -24.755648 4.505311 29.312660 -4.532761 -9.334030 42.463766 1.825394 -56.754633 -1.895972 -166.126571 70.691270 -155.878269 -0.049846 -34.243551 -2.291259 -0.004207 -0.075977 -0.002527 -12.575400 -53.847182 9.458198 158.453596 69.348870 153.408791 1.223204 -36.409924 -3.710589 0.030905 -0.025366 0.018581
58.345031 129.644699 38.197216 179.984302 -14.474938 -1.940930 -2.746697 3.854266 1.737700 -0.083702 0.111009 0.055932 -0.133649 0.204555 0.152430 -2.674121 3.620664 1.675910 -1.882124 20.186608 -3.841811 -1.135063 -4.249006 -3.679939 -7.053453 9.065312 -26.079002 58.049797 -50.628139 -131.315344 6.340712 0.030465 -19.849871 -5.397484 -28.027732 -42.928640 17.950929 -2.250262 25.047397 -45.797727 -61.557165 97.657475 -24.758303 5.502567 28.758417 -4.519615 -9.627427 42.120277 1.919983 -56.937572 -2.007437 -166.099484 70.577737 -155.864704 -0.007973 -34.095951 -2.199090 -0.018608 -0.107023 -0.011177 -12.566728 -53.956406 9.472047 158.366417 69.299038 153.344668 1.185503 -36.361930 -3.727096 0.024829 -0.037277 0.014927
58.334981 129.652777 38.155248 179.951852 -14.493678 -1.913040 -2.728510 3.854832 1.661031 -0.082466 0.108075 0.053998 -0.143918 0.197911 0.111304 -2.655098 3.572570 1.674813 -1.818723 20.228516 -3.729281 -1.078277 -4.271312 -3.547502 -7.411191 8.828349 -26.232753 59.598123 -50.641027 -131.971110 5.735545 0.877596 -19.629019 -5.349111 -27.885292 -42.797715 18.299719 -2.370096 25.252922 -47.094272 -61.816681 98.412980 -24.450721 6.301295 28.269763 -4.517414 -9.905360 41.754900 2.019041 -57.029243 -2.112038 -166.203038 70.488503 -155.971999 -0.002266 -33.965201 -2.159174 -0.021720 -0.177864 -0.013024 -12.492379 -53.995246 9.434016 158.348498 69.241946 153.344907 1.182045 -36.284778 -3.790585 0.026392 -0.049911 0.015861
